<?xml version="1.0" encoding="utf-8"?><!--Generator: Adobe Illustrator 25.0.0, SVG Export Plug-In . SVG Version: 6.00 Build 0)--><svg version="1.1" id="Capa_1" xmlns="http://www.w3.org/2000/svg" xmlns:xlink="http://www.w3.org/1999/xlink" x="0px" y="0px" viewBox="0 0 511.55 100.29" style="enable-background:new 0 0 511.55 100.29;" xml:space="preserve"><style type="text/css">.st0{fill:#135AA4;}
	.st1{fill:none;stroke:#585F6A;stroke-miterlimit:10;}
	.st2{fill:#0E5298;}
	.st3{fill:#1D1D1B;}
	.st4{fill:none;}
	.st5{fill:#585F6A;}
	.st6{fill:#80A9CE;}
	.st7{fill:#E0E0DF;}
	.st8{fill:#F5F5F5;}
	.st9{clip-path:url(#SVGID_2_);fill:none;stroke:#585F6A;stroke-miterlimit:10;}
	.st10{clip-path:url(#SVGID_4_);fill:#585F6A;}
	.st11{clip-path:url(#SVGID_4_);fill:#0E5298;}
	.st12{clip-path:url(#SVGID_4_);fill:#FFFFFF;}
	.st13{clip-path:url(#SVGID_4_);fill:#FDFDFD;}
	.st14{clip-path:url(#SVGID_6_);fill:#1D1D1B;}
	.st15{clip-path:url(#SVGID_6_);fill:#706F6F;}
	.st16{clip-path:url(#SVGID_6_);fill:#706F6E;}
	.st17{clip-path:url(#SVGID_6_);fill:#FFFFFF;}
	.st18{clip-path:url(#SVGID_6_);fill:#80A9CE;}
	.st19{clip-path:url(#SVGID_6_);fill:#7092B1;}
	.st20{clip-path:url(#SVGID_6_);fill:#E5E6E5;}
	.st21{fill:#1D3B6D;}
	.st22{fill:#F08E20;}
	.st23{fill:#DA2739;}
	.st24{fill:#58606B;}
	.st25{fill:#FFFFFF;}
	.st26{fill:#E4E5E4;}
	.st27{fill:#32BA46;}
	.st28{fill:#D2E2F0;}
	.st29{fill:#1E1E1C;}
	.st30{fill:#B81E1C;}
	.st31{fill:#931914;}
	.st32{fill:#D6D6D5;}
	.st33{fill:#EFB122;}
	.st34{fill:#F18C1B;}
	.st35{fill:#3F6D8D;}
	.st36{fill:#365B79;}
	.st37{opacity:0.2;fill:url(#SVGID_7_);}
	.st38{opacity:0.2;fill:url(#SVGID_8_);}
	.st39{fill:#18519C;}
	.st40{fill:#203668;}
	.st41{fill:#1F3463;}
	.st42{fill:#EE8C00;}
	.st43{opacity:0.2;fill:url(#SVGID_9_);}
	.st44{fill:#C41718;}
	.st45{fill:#407093;}
	.st46{fill:#365E7D;}
	.st47{fill:#FAB615;}
	.st48{fill:#9B150F;}
	.st49{opacity:0.2;fill:url(#SVGID_10_);}
	.st50{fill:#FF9100;}
	.st51{fill:#FAB612;}
	.st52{fill:#D4E5F4;}
	.st53{fill-rule:evenodd;clip-rule:evenodd;fill:#407093;}
	.st54{opacity:0.2;fill:url(#SVGID_11_);}
	.st55{opacity:0.2;fill:url(#SVGID_12_);}
	.st56{fill-rule:evenodd;clip-rule:evenodd;fill:#C41718;}
	.st57{fill:#C4191A;}
	.st58{fill-rule:evenodd;clip-rule:evenodd;fill:#D5D6D6;}
	.st59{opacity:0.2;fill:url(#SVGID_13_);}
	.st60{fill-rule:evenodd;clip-rule:evenodd;fill:#D4E5F4;}
	.st61{opacity:0.2;fill:url(#SVGID_14_);}
	.st62{opacity:0.2;fill:url(#SVGID_15_);}
	.st63{fill-rule:evenodd;clip-rule:evenodd;fill:#1D3B6D;}
	.st64{fill:#D5D6D6;}
	.st65{fill-rule:evenodd;clip-rule:evenodd;fill:#9B150F;}
	.st66{opacity:0.2;fill:url(#SVGID_16_);}
	.st67{opacity:0.2;fill:url(#SVGID_17_);}
	.st68{fill:none;stroke:#1D1D1B;stroke-width:1.762;stroke-linecap:round;stroke-linejoin:round;stroke-miterlimit:10;}
	.st69{fill-rule:evenodd;clip-rule:evenodd;fill:#FFFFFF;}
	.st70{opacity:0.2;fill:url(#SVGID_18_);}
	.st71{opacity:0.2;fill:url(#SVGID_19_);}
	.st72{fill-rule:evenodd;clip-rule:evenodd;fill:#1A223D;}
	.st73{fill-rule:evenodd;clip-rule:evenodd;fill:#FAB612;}
	.st74{fill-rule:evenodd;clip-rule:evenodd;fill:#FF9100;}
	.st75{fill-rule:evenodd;clip-rule:evenodd;fill:#365E7D;}
	.st76{opacity:0.2;fill:url(#SVGID_20_);}
	.st77{fill-rule:evenodd;clip-rule:evenodd;fill:#80B4FB;}
	.st78{fill:#1A223D;}
	.st79{opacity:0.2;fill:url(#SVGID_21_);}
	.st80{opacity:0.2;fill:url(#SVGID_22_);}
	.st81{opacity:0.2;fill:url(#SVGID_23_);}
	.st82{opacity:0.2;fill:url(#SVGID_24_);}
	.st83{fill-rule:evenodd;clip-rule:evenodd;fill:#FAB615;}
	.st84{opacity:0.2;fill:url(#SVGID_25_);}
	.st85{opacity:0.2;fill:url(#SVGID_26_);}
	.st86{opacity:0.2;fill:url(#SVGID_27_);}
	.st87{opacity:0.2;fill:url(#SVGID_28_);}
	.st88{opacity:0.2;fill:url(#SVGID_29_);}
	.st89{opacity:0.2;fill:url(#SVGID_30_);}
	.st90{opacity:0.2;fill:url(#SVGID_31_);}
	.st91{opacity:0.2;fill:url(#SVGID_32_);}
	.st92{opacity:0.2;fill:url(#SVGID_33_);}
	.st93{opacity:0.2;fill:url(#SVGID_34_);}
	.st94{opacity:0.2;fill:url(#SVGID_35_);}
	.st95{opacity:0.2;fill:url(#SVGID_36_);}
	.st96{opacity:0.2;fill:url(#SVGID_37_);}
	.st97{opacity:0.2;fill:url(#SVGID_38_);}
	.st98{opacity:0.2;fill:url(#SVGID_39_);}
	.st99{opacity:0.2;fill:url(#SVGID_40_);}
	.st100{opacity:0.2;fill:url(#SVGID_41_);}
	.st101{opacity:0.2;fill:url(#SVGID_42_);}
	.st102{opacity:0.2;fill:url(#SVGID_43_);}
	.st103{opacity:0.2;fill:url(#SVGID_44_);}
	.st104{opacity:0.2;fill:url(#SVGID_45_);}
	.st105{opacity:0.2;fill:url(#SVGID_46_);}
	.st106{opacity:0.65;fill:#F5F7FB;}
	.st107{fill:#0E5297;}
	.st108{fill:url(#SVGID_47_);}
	.st109{fill:url(#SVGID_48_);}
	.st110{fill:url(#SVGID_49_);}
	.st111{fill:url(#SVGID_50_);}</style><g><g><g><polygon class="st25" points="121.23,28 121.23,38.32 139.34,38.32 139.34,51.91 121.23,51.91 121.23,62.57 140.32,62.57 
				140.32,76.16 105.18,76.16 105.18,14.4 140.32,14.4 140.32,28 			"/><rect x="149.9" y="14.4" class="st25" width="14.91" height="61.76"/><polygon class="st25" points="209.86,14.4 225.67,14.4 238.2,47.41 251.47,14.4 267.44,14.4 276.78,76.16 260.73,76.16 
				256.22,40.61 256.06,40.61 241.23,76.16 234.84,76.16 220.67,40.61 220.51,40.61 215.35,76.16 199.37,76.16 			"/><path class="st25" d="M329.21,76.16H314.3v-4.67h-0.16c-1.2,1.96-2.84,3.42-4.92,4.38c-2.08,0.95-4.23,1.49-6.47,1.6
				c-0.22,0.05-0.44,0.08-0.66,0.08h-0.65c-6.22,0-11.32-2.22-15.27-6.67c-3.96-4.45-5.94-9.68-5.94-15.69
				c0-6.01,1.95-11.23,5.86-15.69c3.9-4.45,8.97-6.67,15.19-6.67h0.82c0.27,0,0.55,0.03,0.82,0.08c2.13,0.16,4.22,0.7,6.26,1.6
				c2.05,0.9,3.76,2.17,5.12,3.81v-4.18h14.91V76.16z M298.16,48.6c-1.69,1.88-2.54,4.11-2.54,6.68c0,2.68,0.85,4.92,2.54,6.72
				c1.69,1.8,4.04,2.71,7.04,2.71c3.06,0,5.42-0.91,7.09-2.72c1.67-1.81,2.5-4.06,2.5-6.75c0-2.58-0.83-4.81-2.5-6.71
				c-1.67-1.89-4.03-2.84-7.09-2.84C302.2,45.75,299.85,46.71,298.16,48.6"/><path class="st25" d="M385.23,72.07c0,8.96-2.12,15.37-6.35,19.25c-4.23,3.88-10.22,5.82-17.98,5.82c-1.04,0-2.13-0.05-3.28-0.17
				c-1.15-0.11-2.3-0.3-3.44-0.57c-4.04-0.87-7.8-2.57-11.26-5.08c-3.47-2.51-5.45-5.93-5.94-10.24h16.71
				c0.22,0.76,0.58,1.4,1.06,1.92c0.49,0.52,1.07,0.94,1.72,1.27c0.38,0.22,0.79,0.4,1.23,0.53c0.44,0.13,0.87,0.23,1.31,0.29
				c0.27,0.05,0.56,0.09,0.86,0.12c0.3,0.03,0.59,0.04,0.86,0.04c4.04,0,6.65-1.16,7.82-3.48c1.17-2.32,1.76-5.15,1.76-8.48v-2.04
				c-1.91,1.97-3.92,3.41-6.02,4.34c-2.11,0.92-4.55,1.39-7.33,1.39c-6.12,0-11.1-2.05-14.95-6.14c-3.85-4.09-5.78-9.17-5.78-15.23
				c0-6.17,1.98-11.51,5.94-16.01c3.96-4.51,9.16-6.76,15.61-6.76c2.45,0,4.76,0.45,6.92,1.35c2.16,0.9,3.97,2.39,5.45,4.47
				l0.16-0.08v-4.43h14.91V72.07z M354.19,48.27c-1.69,1.89-2.54,4.11-2.54,6.68c0,2.68,0.85,4.92,2.54,6.72
				c1.69,1.8,4.04,2.7,7.04,2.7c3.06,0,5.42-0.9,7.09-2.72c1.66-1.8,2.5-4.06,2.5-6.74c0-2.58-0.83-4.82-2.5-6.71
				c-1.67-1.89-4.03-2.84-7.09-2.84C358.23,45.42,355.88,46.39,354.19,48.27"/><path class="st25" d="M416.77,32.75c6.77,0.06,12.68,2.04,17.73,5.94c5.05,3.9,7.58,9.43,7.58,16.59c0,7.1-2.52,12.59-7.58,16.46
				c-5.05,3.88-10.96,5.82-17.73,5.82c-6.72,0-12.62-1.92-17.69-5.78c-5.08-3.85-7.61-9.35-7.61-16.51c0-7.15,2.52-12.68,7.58-16.59
				c5.05-3.9,10.96-5.86,17.73-5.86V32.75z M409.72,48.6c-1.69,1.88-2.54,4.11-2.54,6.68c0,2.68,0.85,4.92,2.54,6.72
				c1.69,1.8,4.04,2.71,7.05,2.71c3.06,0,5.42-0.91,7.09-2.72c1.66-1.81,2.5-4.06,2.5-6.75c0-2.58-0.83-4.81-2.5-6.71
				c-1.67-1.89-4.03-2.84-7.09-2.84C413.76,45.75,411.41,46.71,409.72,48.6"/><path class="st25" d="M460.19,58.25c0.61,0.69,1.21,1.2,1.79,1.55c0.59,0.34,1.18,0.51,1.77,0.51c0.55,0,1-0.15,1.35-0.44
				c0.35-0.3,0.52-0.67,0.52-1.12c0-0.5-0.15-0.89-0.45-1.15c-0.31-0.27-0.99-0.55-2.06-0.83c-1.47-0.4-2.5-0.91-3.11-1.55
				c-0.61-0.63-0.91-1.5-0.91-2.61c0-1.43,0.48-2.6,1.43-3.5c0.96-0.9,2.21-1.35,3.74-1.35c0.82,0,1.6,0.11,2.35,0.33
				c0.74,0.22,1.44,0.56,2.1,1.01l-1.28,2.94c-0.46-0.39-0.94-0.69-1.43-0.9c-0.49-0.2-0.97-0.3-1.45-0.3
				c-0.49,0-0.89,0.12-1.2,0.36c-0.31,0.23-0.46,0.54-0.46,0.9c0,0.38,0.14,0.68,0.41,0.9c0.27,0.22,0.79,0.44,1.56,0.65l0.18,0.05
				c1.67,0.45,2.76,0.95,3.29,1.49c0.35,0.37,0.62,0.81,0.81,1.33c0.18,0.52,0.28,1.09,0.28,1.71c0,1.59-0.52,2.87-1.57,3.83
				c-1.05,0.97-2.44,1.45-4.18,1.45c-1.04,0-1.99-0.18-2.85-0.53c-0.86-0.35-1.68-0.91-2.47-1.66L460.19,58.25z"/><path class="st25" d="M470.97,61.42c0-0.58,0.2-1.06,0.59-1.46c0.39-0.4,0.88-0.59,1.46-0.59c0.6,0,1.09,0.2,1.48,0.59
				c0.4,0.4,0.59,0.89,0.59,1.46c0,0.58-0.2,1.08-0.6,1.47c-0.4,0.41-0.89,0.6-1.48,0.6c-0.57,0-1.06-0.2-1.45-0.6
				C471.17,62.49,470.97,62,470.97,61.42"/><path class="st25" d="M477.89,63.1V48.11h4.27c1.67,0,2.84,0.08,3.5,0.23c0.66,0.15,1.22,0.41,1.7,0.77
				c0.54,0.41,0.95,0.93,1.24,1.56c0.29,0.64,0.43,1.34,0.43,2.1c0,1.16-0.28,2.1-0.85,2.83c-0.57,0.72-1.4,1.21-2.49,1.45
				l4.09,6.04h-4.62l-3.44-5.87v5.87H477.89z M481.72,55.19h0.76c0.88,0,1.52-0.15,1.93-0.45c0.4-0.3,0.61-0.77,0.61-1.41
				c0-0.75-0.19-1.28-0.57-1.6c-0.38-0.32-1.01-0.47-1.91-0.47h-0.82V55.19z"/><path class="st25" d="M491.33,61.42c0-0.58,0.2-1.06,0.59-1.46c0.39-0.4,0.88-0.59,1.46-0.59c0.59,0,1.09,0.2,1.49,0.59
				c0.39,0.4,0.59,0.89,0.59,1.46c0,0.58-0.2,1.08-0.6,1.47c-0.4,0.41-0.89,0.6-1.48,0.6c-0.57,0-1.06-0.2-1.45-0.6
				C491.53,62.49,491.33,62,491.33,61.42"/><polygon class="st25" points="498.25,63.1 498.25,48.11 502.33,48.11 502.33,59.6 507.41,59.6 507.41,63.1 			"/></g></g><g><g><path class="st25" d="M87.89,43.9c0,22.56-18.29,40.84-40.85,40.84c-22.56,0-40.85-18.29-40.85-40.84S24.48,3.06,47.04,3.06
				C69.6,3.06,87.89,21.35,87.89,43.9"/><g><g><path class="st39" d="M61.6,64.05l-1.75-15.84c-0.11-1.22-0.22-2.44-0.33-3.65c-0.11-1.21-0.2-2.43-0.27-3.65
						c-0.16,1.15-0.4,2.36-0.7,3.65c-0.3,1.28-0.67,2.65-1.11,4.11l-4.59,15.38h-8.55l-4.59-15.38c-0.46-1.46-0.83-2.83-1.12-4.11
						c-0.29-1.28-0.52-2.5-0.68-3.65c-0.09,1.24-0.19,2.46-0.29,3.66c-0.1,1.2-0.2,2.41-0.31,3.63l-1.75,15.84h-14.1l6.83-39.99
						h14.83l2.84,9.89c0.09,0.31,0.23,0.77,0.41,1.39c1.2,4.17,1.94,7.6,2.21,10.3h0.24c0.22-1.69,0.55-3.5,0.98-5.41
						c0.44-1.91,1.02-4.06,1.75-6.45l2.98-9.72h14.81l6.34,39.99H61.6z"/></g><g><path class="st40" d="M37.92,40.9l-5.68,23.15h3.34c0,0,2.49-20.76,2.36-23"/><path class="st41" d="M35.59,64.07h-3.37l0-0.02l5.68-23.15l0.03,0.01l-5.68,23.14h3.31c0.07-0.6,2.49-20.79,2.36-22.98l0.03,0
						c0.13,2.21-2.34,22.79-2.36,23L35.59,64.07z"/></g><g><polygon class="st40" points="65.36,23.43 59.48,44.64 54,64.05 50.7,64.05 65.53,18.46 					"/><path class="st41" d="M54.02,64.07h-3.33l0.01-0.02l14.85-45.69l-0.18,5.07L59.5,44.65L54.02,64.07z M50.72,64.04h3.27
						l5.47-19.4l5.87-21.21l0.17-4.87L50.72,64.04z"/></g></g><path class="st42" d="M66.77,14.08l1.42,5.66c0.06,0.26,0.25,0.46,0.5,0.56l5.47,2.04c0.62,0.23,0.71,1.08,0.15,1.43l-4.95,3.1
				c-0.22,0.14-0.36,0.38-0.38,0.64l-0.25,5.83c-0.03,0.66-0.81,1.01-1.32,0.58l-4.47-3.75c-0.2-0.17-0.48-0.23-0.73-0.16
				l-5.62,1.56c-0.64,0.18-1.21-0.46-0.96-1.07l2.18-5.41c0.1-0.24,0.07-0.52-0.08-0.74l-3.22-4.86c-0.37-0.55,0.06-1.29,0.73-1.24
				l5.82,0.4c0.26,0.02,0.52-0.09,0.68-0.3l3.63-4.56C65.77,13.25,66.61,13.43,66.77,14.08"/><g><path class="st40" d="M74.14,22.34l-0.34-0.13c-0.04,0.06-0.1,0.11-0.16,0.16l-4.69,3.47c-0.21,0.16-0.33,0.41-0.33,0.67
					l0.17,4.94l0.17-3.93c0.01-0.26,0.15-0.51,0.37-0.64l4.95-3.1C74.85,23.42,74.77,22.57,74.14,22.34"/><path class="st41" d="M68.81,31.44h-0.03l-0.17-4.94c-0.01-0.27,0.12-0.53,0.33-0.68l4.69-3.47c0.05-0.04,0.11-0.09,0.15-0.15
					l0.01-0.01l0.35,0.13c0.29,0.11,0.5,0.37,0.53,0.68c0.03,0.31-0.11,0.61-0.38,0.78l-4.95,3.09c-0.22,0.14-0.36,0.37-0.37,0.63
					L68.81,31.44z M73.81,22.23c-0.05,0.06-0.1,0.11-0.15,0.15l-4.69,3.47c-0.21,0.15-0.33,0.4-0.32,0.66l0.15,4.58l0.16-3.57
					c0.01-0.27,0.15-0.52,0.38-0.66l4.94-3.09c0.26-0.16,0.4-0.45,0.37-0.75c-0.03-0.3-0.23-0.55-0.51-0.66L73.81,22.23z"/></g><g><path class="st40" d="M68.74,32.71c-0.21,0.42-0.76,0.61-1.18,0.31l-4.75-3.39c-0.22-0.15-0.49-0.19-0.74-0.1l-5.48,1.99
					c-0.29,0.1-0.57,0.03-0.77-0.13c0.19,0.18,0.47,0.27,0.76,0.19l5.62-1.56c0.25-0.07,0.53-0.01,0.73,0.16l4.47,3.75
					c0.51,0.43,1.29,0.08,1.32-0.58L68.74,32.71z"/><path class="st41" d="M67.91,34.12L67.91,34.12c-0.19,0-0.37-0.07-0.52-0.19l-4.47-3.75C62.77,30.06,62.59,30,62.41,30
					c-0.07,0-0.14,0.01-0.21,0.03l-5.62,1.56c-0.07,0.02-0.15,0.03-0.22,0.03c-0.2,0-0.4-0.08-0.56-0.23l0.02-0.02
					c0.14,0.12,0.32,0.18,0.49,0.18c0.09,0,0.18-0.02,0.27-0.05l5.48-1.99c0.09-0.03,0.18-0.05,0.28-0.05
					c0.17,0,0.34,0.05,0.48,0.15L67.57,33c0.13,0.1,0.29,0.15,0.45,0.15c0.3,0,0.58-0.18,0.71-0.45l0.03-0.06l-0.03,0.69
					C68.71,33.83,68.29,34.12,67.91,34.12z M62.41,29.97c0.19,0,0.38,0.07,0.53,0.19l4.47,3.75c0.15,0.12,0.32,0.19,0.5,0.19l0,0
					c0.37,0,0.77-0.28,0.79-0.76l0.03-0.57c-0.15,0.25-0.42,0.41-0.71,0.41c-0.17,0-0.33-0.05-0.47-0.15l-4.75-3.39
					c-0.13-0.1-0.29-0.15-0.46-0.15c-0.09,0-0.18,0.02-0.27,0.05l-5.48,1.99c-0.14,0.05-0.3,0.06-0.44,0.03
					c0.14,0.04,0.28,0.04,0.42,0L62.19,30C62.26,29.98,62.33,29.97,62.41,29.97z"/></g><g><polygon class="st42" points="57.23,13.74 60.11,12.24 60.76,17 				"/><polygon class="st42" points="72.67,15.67 74.18,18.54 69.42,19.2 				"/><polygon class="st42" points="74.41,28.28 72.9,31.16 69.65,27.62 				"/><polygon class="st42" points="51.72,26.89 51.4,23.66 56.06,24.83 				"/></g></g></g></g></svg>